# xmcd
#
# Track frame offsets: 
#        150
#        2921
#        19162
#        35020
#        52765
#        67680
#        80577
#        94597
#        109082
#        127561
#        141235
#        149040
#        160410
#        183139
#        199345
#        205304
#        217155
#        229472
#        245682
#        263872
#        282083
#        290527
#        306238
#        313130
#        319586
#        333726
#        347313
#        354318
#
# Disc length: 4795 seconds
#
# Revision: 0
# Processed by: cddbd v1.5.1PL2 Copyright (c) Steve Scherf et al.
# Submitted via: ExactAudioCopy v0.95b4
#
DISCID=a912b91c
DTITLE=Various Artist - E-V Money: The O-DOT Takeover
DYEAR=2006
DGENRE=Hip-Hop
TTITLE0=Dj E-V and O.D.O.T./E-V Money Intro
TTITLE1=Copywrite and KingDom/Top Billin' 06 (KickDrums)
TTITLE2=Catalyst, Nickname and Meta4ce/Move
TTITLE3=Copywrite/Snakes (JakeOne)
TTITLE4=Catalyst/Let it rip
TTITLE5=Tage ft. Copywrite/Take it Away (JakeOne)
TTITLE6=Copywrite/We Are (Ohio) (Ty Fyffe)
TTITLE7=Catalyst/C-O, C-O (Freestyle)
TTITLE8=Copywrite and Catalyst/Tough Love Freestyle
TTITLE9=Copywrite ft. Tage/Me Myself and U (JakeOne)
TTITLE10=Copywrite/Waiting To Exhale snippet (Dilla)(R.I.P.)
TTITLE11=Jakki ft. Copywrite/We Run This (Rocktight)
TTITLE12=Copywrite and KingDom/That's a Wrap (Dilla)(R.I.P.)
TTITLE13=Jakki ft. Copywrite and Catalyst/Sick One Four (Rocktight)
TTITLE14=Copywrite/Hip Hop Game Freestyle (JakeOne)
TTITLE15=Debut ft. Copywrite/Same Shit (Jimmy Swagg)
TTITLE16=Tage/Arch in ya Back (Dilla)(R.I.P.)
TTITLE17=Meta4ce/Hoes (Amos Famous)
TTITLE18=Catalyst, Npayshint and Nickname/Rockstar
TTITLE19=Copywrite/Let Em Know (Kwame)
TTITLE20=Jakki/Divine
TTITLE21=Copywrite/Die Another Day (Ty Fyffe)
TTITLE22=Copywrite/Breathe Freestyle
TTITLE23=KingDom and Copywrite/If I don't know you
TTITLE24=Jakki/Pause Yo Speed (Copywrite)
TTITLE25=Mind Write Music/Things Change
TTITLE26=Flamez/Keeper of the Castle
TTITLE27=Tone Spliff/Spliff Beat
EXTD=
EXTT0=
EXTT1=
EXTT2=
EXTT3=
EXTT4=
EXTT5=
EXTT6=
EXTT7=
EXTT8=
EXTT9=
EXTT10=
EXTT11=
EXTT12=
EXTT13=
EXTT14=
EXTT15=
EXTT16=
EXTT17=
EXTT18=
EXTT19=
EXTT20=
EXTT21=
EXTT22=
EXTT23=
EXTT24=
EXTT25=
EXTT26=
EXTT27=
PLAYORDER=
